<svg width="512" height="512" viewBox="0 0 64 64" fill="none" xmlns="http://www.w3.org/2000/svg" role="img" aria-label="Ghanima's Lab">
  <rect width="64" height="64" rx="14" fill="#0c0c0e"/>
  <path fill="#f0eeea" d="M20 22 L16 8 L26 18 Z"/>
  <path fill="#f0eeea" d="M38 18 L44 8 L42 22 Z"/>
  <ellipse cx="32" cy="26" rx="12" ry="11" fill="#f0eeea"/>
  <path
    fill="#f0eeea"
    d="M20 30
       C16 34 14 42 16 50
       C17 54 20 56 24 56
       H40
       C44 56 47 54 48 50
       C50 42 48 34 44 30
       C40 27 36 28 32 28
       C28 28 24 27 20 30 Z"
  />
  <ellipse cx="26" cy="54" rx="4" ry="3" fill="#f0eeea"/>
  <ellipse cx="38" cy="54" rx="4" ry="3" fill="#f0eeea"/>
  <path
    fill="#f0eeea"
    d="M16 44
       C8 42 5 48 7 53
       C8.5 56 12 56 14 53
       C15.5 50 16 47 16 44 Z"
  />
  <circle cx="28" cy="25" r="1.8" fill="#0c0c0e"/>
  <circle cx="36" cy="25" r="1.8" fill="#0c0c0e"/>
</svg>
